Coordinates
version=1
nRows=5
nColumns=42
inDegrees=yes

Units are S.I. units (second, meters, Newtons, ...)
If the header above contains a line with 'inDegrees', this indicates whether rotational values are in degrees (yes) or radians (no).

endheader
time	pelvis_tilt	pelvis_list	pelvis_rotation	pelvis_tx	pelvis_ty	pelvis_tz	hip_flexion_r	hip_adduction_r	hip_rotation_r	knee_angle_r	knee_adduction_r	knee_angle_r_beta	ankle_angle_r	subtalar_angle_r	mtp_angle_r	hip_flexion_l	hip_adduction_l	hip_rotation_l	knee_angle_l	knee_adduction_l	knee_angle_l_beta	ankle_angle_l	subtalar_angle_l	mtp_angle_l	lumbar_extension	lumbar_bending	lumbar_rotation	arm_flex_r	arm_add_r	arm_rot_r	elbow_flex_r	pro_sup_r	wrist_flex_r	wrist_dev_r	arm_flex_l	arm_add_l	arm_rot_l	elbow_flex_l	pro_sup_l	wrist_flex_l	wrist_dev_l
      1.96000000	      0.33266407	      0.73042725	     -7.68449902	      0.11057146	      0.86504677	     -0.17188132	    -20.07478976	     -8.64317004	      0.76379861	     16.11192399	     14.27921326	      0.28120612	     11.32287637	      5.87675665	     -7.50595779	     23.27923214	     -7.26092566	     -7.34593619	     13.28801307	     14.53895426	      0.23191958	     -2.74863235	     -3.58749607	     -7.50595779	    -11.66465696	     -1.85121973	      5.77621124	     -4.85593448	    -13.54369435	     -5.49334270	     18.88732002	     90.00000001	      0.00000000	      0.00000000	    -13.89171602	     -8.14172330	      4.72585564	     21.01988992	     90.00000001	      0.00000000	      0.00000000
      1.97000000	      0.48680107	      0.93230630	     -7.50589567	      0.12281083	      0.86590050	     -0.17310828	    -19.79799339	     -9.24484363	      0.57893448	     18.38514978	     14.56712076	      0.32088140	      9.22788442	      5.79882754	     -7.50582685	     23.05566260	     -6.90342422	     -6.35463196	     14.36169162	     14.84280024	      0.25065881	     -3.71614820	     -4.23850595	     -7.50582685	    -11.93603600	     -2.18193125	      5.54305039	     -5.09101535	    -13.46970946	     -5.64837753	     18.72143300	     90.00000001	      0.00000000	      0.00000000	    -13.72648600	     -8.33637918	      4.63888112	     21.01013822	     90.00000001	      0.00000000	      0.00000000
      1.98000000	      0.25455443	      1.20028381	     -7.23354942	      0.13458874	      0.86642363	     -0.17464781	    -18.57654466	     -9.96127352	     -0.54820448	     21.81571974	     14.73755437	      0.38075614	      7.66331376	      7.30598712	     -7.50543089	     23.21280680	     -6.42543501	     -4.79364388	     15.14501802	     15.17631810	      0.26433043	     -4.80782863	     -6.10909390	     -7.50543089	    -11.79610493	     -2.48716064	      5.23121591	     -5.27801788	    -13.39420341	     -5.99853098	     18.45157985	     90.00000001	      0.00000000	      0.00000000	    -13.53222788	     -8.53473446	      4.47575411	     20.96639638	     90.00000001	      0.00000000	      0.00000000
      1.99000000	      0.69526381	      1.25855357	     -7.00939148	      0.14694366	      0.86816053	     -0.17577111	    -18.39430787	    -10.43656941	     -0.70254295	     24.31082576	     14.95507046	      0.42430395	      4.84042456	      7.13364109	     -7.50532180	     22.46857744	     -6.25420506	     -4.21796233	     16.05824618	     15.57800276	      0.28026927	     -4.70196173	     -6.19276961	     -7.50532180	    -12.40031598	     -2.68835116	      4.96162312	     -5.50143442	    -13.35505712	     -6.00940580	     18.35454333	     90.00000001	      0.00000000	      0.00000000	    -13.32454129	     -8.76792146	      4.45918190	     21.01801390	     90.00000001	      0.00000000	      0.00000000
      2.00000000	      0.59922814	      1.45147754	     -6.73415295	      0.15873165	      0.86918648	     -0.17721606	    -17.00008036	    -11.10842796	     -1.95378381	     28.16167504	     14.81157232	      0.49151395	      2.72532170	      8.78872509	     -7.50482941	     22.40289171	     -5.92054031	     -3.69269692	     17.05664735	     15.84031714	      0.29769466	     -4.42975054	     -6.25443336	     -7.50482941	    -12.42160312	     -2.90823339	      4.66822408	     -5.72803782	    -13.29464209	     -6.11471281	     18.16370558	     90.00000001	      0.00000000	      0.00000000	    -13.12587929	     -8.99466497	      4.40261852	     21.04242951	     90.00000001	      0.00000000	      0.00000000
